<?xml version="1.0" standalone="no"?>
<!DOCTYPE svg PUBLIC "-//W3C//DTD SVG 20010904//EN"
 "http://www.w3.org/TR/2001/REC-SVG-20010904/DTD/svg10.dtd">
<svg version="1.0" xmlns="http://www.w3.org/2000/svg"
 width="700.000000pt" height="700.000000pt" viewBox="0 0 700.000000 700.000000"
 preserveAspectRatio="xMidYMid meet">
<metadata>
Created by potrace 1.14, written by Peter Selinger 2001-2017
</metadata>
<g transform="translate(0.000000,700.000000) scale(0.100000,-0.100000)"
fill="#000000" stroke="none">
<path d="M1697 6124 c-1 -1 -30 -5 -64 -8 -73 -8 -173 -37 -252 -74 -270 -126
-468 -398 -498 -687 -9 -85 -8 -3657 1 -3730 9 -76 58 -221 98 -294 111 -201
312 -361 528 -422 53 -15 67 -17 140 -27 66 -9 3694 -7 3730 2 14 3 41 9 59
12 54 9 170 53 231 87 164 92 294 231 373 398 32 68 66 185 74 259 9 73 9
3650 0 3715 -39 298 -225 558 -489 683 -77 37 -176 68 -249 78 -42 6 -3675 14
-3682 8z m3659 -450 c164 -49 277 -164 319 -322 19 -75 19 -3629 -1 -3704 -44
-168 -185 -302 -345 -327 -30 -5 -859 -9 -1843 -9 -1425 0 -1798 3 -1837 13
-160 43 -281 163 -323 322 -11 40 -13 402 -13 1857 0 1684 1 1812 17 1865 24
78 53 127 112 188 53 54 147 107 208 118 19 3 36 7 37 9 2 2 819 3 1815 3
1467 0 1819 -2 1854 -13z"/>
<path d="M2818 4374 c-2 -1 -16 -5 -32 -8 -15 -3 -40 -13 -55 -22 -14 -9 -186
-177 -382 -373 -324 -325 -356 -360 -368 -404 -17 -61 -9 -138 20 -180 13 -18
181 -190 373 -383 298 -298 358 -353 396 -366 106 -35 218 12 271 114 25 48
25 130 0 183 -12 26 -112 134 -282 303 l-263 263 265 264 c162 163 271 279
281 302 48 104 -5 243 -108 288 -30 12 -110 26 -116 19z"/>
<path d="M4115 4369 c-74 -17 -122 -54 -154 -119 -24 -48 -26 -135 -4 -183 11
-23 121 -141 283 -303 l264 -265 -267 -267 c-176 -176 -271 -280 -282 -304
-44 -107 9 -238 115 -284 47 -21 126 -21 174 0 60 25 730 695 762 761 29 62
31 125 3 185 -27 60 -706 740 -763 764 -46 19 -91 25 -131 15z"/>
</g>
</svg>
